<svg width="31" height="35" viewBox="0 0 31 35" fill="none" xmlns="http://www.w3.org/2000/svg">
<path d="M25.3571 32.6541C23.4187 34.4493 21.3022 34.1659 19.2649 33.3155C17.1089 32.4462 15.131 32.4084 12.8563 33.3155C10.008 34.4871 8.50478 34.147 6.80373 32.6541C-2.84876 23.1489 -1.42462 8.67374 9.53332 8.14463C12.2036 8.27691 14.0629 9.54301 15.6255 9.65639C17.9595 9.20286 20.1946 7.89897 22.6868 8.06904C25.6735 8.2958 27.9284 9.42963 29.4119 11.4705C23.2406 15.0043 24.7043 22.7709 30.3613 24.9441C29.2339 27.7787 27.7702 30.5943 25.3373 32.673L25.3571 32.6541ZM15.4277 8.03125C15.131 3.8172 18.7111 0.340147 22.8253 0C23.3989 4.87544 18.1968 8.50367 15.4277 8.03125Z" fill="white"/>
</svg>
