<svg width="31" height="29" viewBox="0 0 31 29" fill="none" xmlns="http://www.w3.org/2000/svg">
<path fill-rule="evenodd" clip-rule="evenodd" d="M0.546387 2.09444C0.546387 2.03867 0.548689 1.98291 0.553293 1.93161L13.5144 14.4871L0.553293 27.0448C0.548759 26.9906 0.546455 26.9363 0.546387 26.8819V2.09444ZM3.4425 28.9764C3.67272 28.934 3.90293 28.8582 4.12855 28.7489L20.1124 20.8819L15.9547 16.8536L3.4425 28.9764ZM18.3973 14.4871L23.3516 19.2871L29.3049 16.3562C30.9602 15.5421 30.9602 13.4343 29.3049 12.6201L23.3493 9.68927L18.3973 14.4871ZM20.1124 8.09447L4.12855 0.227511C3.91204 0.120797 3.68109 0.0442059 3.4425 0L15.9547 12.1205L20.1124 8.09447Z" fill="white"/>
</svg>
