<svg width="23" height="26" viewBox="0 0 23 26" fill="none" xmlns="http://www.w3.org/2000/svg">
    <path
        d="M2.596 14.1869C2.70625 16.7799 3.289 18.7273 5.1559 20.7739C6.9409 22.7319 9.2845 24.4071 11.5 25C13.7176 24.4061 16.0675 22.7266 17.8546 20.7644C19.7131 18.7231 20.2948 16.7736 20.404 14.1869M7.825 6.80227L8.66395 2.40317M8.66395 2.40317L8.875 1.29548C9.7108 1.09821 10.5928 1.0001 11.5 1.0001C12.3834 0.996469 13.2643 1.09559 14.125 1.29548L14.3361 2.40317M8.66395 2.40317C5.71975 3.168 3.3793 5.19981 2.575 8.5925C2.30095 9.74872 1.98385 10.8902 1 11.5495V12.077C1 12.077 3.36985 13.1319 11.5 13.1319C19.6301 13.1319 22 12.077 22 12.077V11.5495C21.0161 10.8902 20.699 9.74872 20.425 8.5925C19.6207 5.19876 17.2803 3.168 14.3361 2.40317M15.175 6.80227L14.3361 2.40317"
        stroke="#EAA86C" />
</svg>